<svg width="219" height="219" viewBox="0 0 219 219" fill="none" xmlns="http://www.w3.org/2000/svg">
<path d="M41.778 68.234L83.1437 109.6L41.7779 150.966C34.7485 157.995 34.7485 169.392 41.7779 176.421C48.8074 183.451 60.2043 183.451 67.2338 176.421L108.6 135.056L149.965 176.421C156.995 183.451 168.392 183.451 175.421 176.421C182.451 169.392 182.451 157.995 175.421 150.966L134.055 109.6L175.421 68.234C182.451 61.2046 182.451 49.8076 175.421 42.7782C168.392 35.7487 156.995 35.7487 149.965 42.7782L108.6 84.1439L67.2339 42.7782C60.2044 35.7488 48.8074 35.7488 41.778 42.7782C34.7486 49.8076 34.7486 61.2046 41.778 68.234Z" fill="black" stroke="black" style="fill:black;fill-opacity:1;stroke:black;stroke-opacity:1;" stroke-width="7"/>
</svg>
